<?xml version="1.0" standalone="no"?>
<!DOCTYPE svg PUBLIC "-//W3C//DTD SVG 20010904//EN"
 "http://www.w3.org/TR/2001/REC-SVG-20010904/DTD/svg10.dtd">
<svg version="1.0" xmlns="http://www.w3.org/2000/svg"
 width="611.000000pt" height="850.000000pt" viewBox="0 0 611.000000 850.000000"
 preserveAspectRatio="xMidYMid meet">

<g transform="translate(0.000000,850.000000) scale(0.100000,-0.100000)"
fill="#000000" stroke="none">
<path d="M682 8374 c-16 -11 -22 -25 -22 -53 0 -42 20 -67 59 -73 21 -3 33
-25 93 -173 62 -152 68 -173 59 -201 -16 -45 -13 -79 7 -97 21 -19 73 -22 89
-6 13 13 126 -46 521 -269 206 -117 222 -128 222 -154 0 -34 32 -68 64 -68 30
0 66 43 66 79 1 28 38 55 436 307 181 115 193 120 217 108 38 -20 86 -1 94 38
6 31 28 46 98 68 22 7 54 18 70 26 17 7 168 61 337 118 300 103 306 104 324
85 23 -25 62 -24 91 2 l22 22 132 -29 c125 -27 132 -30 141 -56 15 -43 77 -65
105 -37 8 8 41 -11 125 -73 62 -47 149 -111 193 -142 70 -50 79 -61 77 -85 -4
-37 27 -73 61 -73 34 0 67 28 67 58 0 19 16 28 123 69 67 26 217 85 332 130
116 46 287 112 380 148 484 184 625 237 633 237 5 0 15 -7 22 -15 15 -18 60
-20 83 -2 28 21 32 68 7 100 -37 46 -110 25 -110 -32 0 -18 -7 -31 -17 -36
-10 -4 -119 -45 -243 -92 -351 -132 -612 -233 -645 -248 -39 -17 -276 -109
-438 -170 -119 -45 -129 -47 -145 -31 -21 18 -77 22 -87 6 -7 -11 -57 22 -267
178 -116 86 -128 98 -128 126 0 37 -7 49 -37 65 -31 16 -41 14 -69 -14 l-24
-24 -132 29 c-72 17 -132 31 -132 33 -8 27 -38 64 -58 71 -35 12 -74 -13 -83
-52 -6 -29 -15 -33 -268 -120 -144 -50 -323 -112 -398 -139 -131 -46 -138 -47
-156 -30 -25 22 -75 22 -96 -1 -10 -10 -17 -32 -17 -49 0 -28 -10 -37 -122
-108 -68 -43 -201 -130 -297 -192 -201 -133 -217 -141 -233 -125 -16 16 -49
15 -74 -2 -18 -13 -31 -8 -150 59 -71 40 -233 131 -361 202 -207 114 -232 131
-233 153 0 39 -27 70 -60 70 -21 0 -31 6 -36 23 -3 12 -36 93 -71 179 -62 153
-64 158 -49 187 22 41 20 58 -9 86 -28 29 -51 31 -83 9z"/>
<path d="M101 7994 c-36 -26 -51 -74 -51 -170 0 -135 33 -184 123 -184 40 0
54 5 77 28 71 72 61 296 -16 331 -36 16 -106 14 -133 -5z m113 -37 c20 -15 35
-73 36 -140 0 -119 -74 -175 -130 -97 -16 22 -20 44 -20 100 0 118 53 182 114
137z"/>
<path d="M4498 6689 c-20 -11 -24 -39 -7 -39 7 0 17 7 23 16 14 19 48 8 44
-15 -2 -10 -15 -17 -36 -19 -23 -2 -36 -10 -44 -27 -17 -38 4 -55 66 -53 l52
1 -4 61 c-4 64 -19 86 -56 86 -12 0 -29 -5 -38 -11z m62 -93 c0 -18 -39 -31
-52 -18 -15 15 0 32 28 32 14 0 24 -6 24 -14z"/>
<path d="M705 6568 c-28 -16 -35 -28 -35 -63 0 -38 25 -75 50 -75 13 0 25 -13
36 -37 9 -21 18 -33 21 -26 2 7 0 21 -6 32 -14 25 -14 31 0 31 5 0 216 -185
467 -411 440 -396 457 -413 467 -457 20 -87 98 -109 132 -37 15 32 22 35 102
54 173 41 2127 483 2151 487 14 2 399 90 855 194 457 105 841 188 854 186 13
-2 37 1 53 6 23 8 33 7 47 -6 28 -25 76 -20 100 10 36 46 24 92 -29 114 -28
11 -34 11 -58 -7 -15 -11 -28 -30 -30 -42 l-3 -21 -2535 0 c-2279 0 -2534 2
-2534 15 0 22 -45 65 -67 65 -10 0 -27 -6 -38 -12z m1065 -502 l0 -424 -26
-17 c-26 -17 -27 -16 -63 18 -20 18 -218 197 -441 397 -508 455 -454 403 -441
429 12 21 13 21 491 21 l480 0 0 -424z m4065 414 c-16 -5 -412 -95 -880 -201
-827 -187 -850 -192 -878 -176 -39 23 -58 21 -28 -2 23 -17 23 -19 5 -24 -33
-11 -2186 -497 -2198 -497 -6 0 3 11 19 25 33 27 18 34 -19 10 -21 -14 -24
-14 -36 0 -7 8 -19 15 -26 15 -12 0 -14 71 -14 430 l0 430 2043 -1 c1123 0
2029 -5 2012 -9z"/>
<path d="M3399 6402 c-15 -13 -22 -30 -22 -50 0 -18 -4 -32 -9 -32 -19 0 -5
-16 28 -32 46 -23 65 -23 93 3 18 17 30 20 62 15 48 -8 52 9 5 18 -28 5 -36
12 -41 36 -12 55 -72 77 -116 42z"/>
<path d="M3812 6307 c-28 -29 -28 -67 -1 -101 22 -28 48 -33 80 -15 15 8 25 6
46 -10 38 -31 53 -25 16 7 -26 22 -31 34 -30 66 2 68 -67 100 -111 53z"/>
<path d="M3660 6290 c0 -10 81 -29 94 -22 11 6 -14 16 -61 25 -18 4 -33 2 -33
-3z"/>
<path d="M3260 6283 c-8 -3 -26 -10 -39 -15 -13 -5 -21 -11 -18 -14 7 -8 87
17 87 28 0 9 -8 9 -30 1z"/>
<path d="M3083 6223 c-24 -8 -43 -19 -43 -25 0 -6 8 -7 18 -3 9 4 29 12 45 17
15 5 27 14 27 19 0 5 -1 9 -2 8 -2 0 -22 -7 -45 -16z"/>
<path d="M1812 6123 l3 -98 47 -3 c39 -2 49 1 62 20 9 12 16 39 16 59 0 46
-28 73 -70 67 -27 -4 -30 -2 -30 24 0 18 -5 28 -15 28 -13 0 -15 -15 -13 -97z
m96 -31 c-2 -30 -7 -38 -27 -40 -28 -4 -41 12 -41 50 0 32 26 51 53 36 14 -7
17 -19 15 -46z"/>
<path d="M2911 6164 c-19 -8 -31 -17 -28 -20 7 -7 77 14 92 27 15 14 -26 10
-64 -7z"/>
<path d="M2760 6113 c-25 -9 -39 -18 -33 -20 16 -6 81 15 88 28 8 12 -1 11
-55 -8z"/>
<path d="M2478 6080 c-24 -25 -29 -36 -23 -58 10 -40 34 -62 70 -62 34 0 58
20 70 58 3 12 21 29 38 37 l32 15 -36 -5 c-29 -4 -40 -1 -59 20 -31 33 -55 32
-92 -5z"/>
<path d="M2425 5974 c-11 -8 -27 -19 -35 -24 -8 -5 -12 -11 -8 -15 7 -7 78 36
78 48 0 11 -13 8 -35 -9z"/>
<path d="M2273 5878 c-47 -29 -41 -44 7 -17 22 13 40 26 40 31 0 12 -11 9 -47
-14z"/>
<path d="M2133 5789 c-47 -30 -41 -44 7 -17 22 13 40 26 40 31 0 12 -13 8 -47
-14z"/>
<path d="M1987 5694 c-21 -14 -36 -28 -33 -31 6 -6 86 43 86 52 0 11 -17 4
-53 -21z"/>
<path d="M5680 6403 c-19 -8 -30 -17 -24 -19 11 -5 84 23 84 31 0 9 -25 4 -60
-12z"/>
<path d="M5520 6343 c-19 -8 -30 -17 -24 -19 6 -3 31 4 55 15 27 12 36 20 24
20 -11 0 -36 -7 -55 -16z"/>
<path d="M5383 6293 c-24 -8 -43 -19 -43 -24 0 -12 3 -12 50 7 22 9 40 20 40
25 0 5 -1 9 -2 8 -2 0 -22 -7 -45 -16z"/>
<path d="M805 6273 c4 -10 12 -30 17 -45 5 -16 14 -28 20 -28 6 0 7 8 3 18 -4
9 -12 29 -17 45 -5 15 -14 27 -20 27 -6 0 -7 -8 -3 -17z"/>
<path d="M5225 6233 c-47 -19 -50 -21 -43 -28 8 -8 88 25 88 36 0 11 4 12 -45
-8z"/>
<path d="M170 6185 c-10 -18 -25 -27 -52 -32 -33 -5 -39 -9 -36 -27 2 -17 11
-22 46 -24 l42 -3 0 -130 c0 -129 0 -130 23 -127 22 3 22 5 25 186 2 172 1
182 -16 182 -10 0 -25 -11 -32 -25z"/>
<path d="M5068 6173 c-53 -21 -47 -35 7 -16 25 8 45 19 45 24 0 12 -8 11 -52
-8z"/>
<path d="M872 6110 c8 -25 7 -34 -6 -49 -24 -26 -21 -77 6 -95 25 -18 75 -21
97 -7 10 6 25 4 42 -5 32 -16 39 -17 39 -6 0 5 -11 14 -25 20 -17 8 -25 20
-25 37 0 28 -16 66 -34 77 -6 4 -23 8 -39 8 -19 0 -31 7 -39 25 -16 35 -29 31
-16 -5z"/>
<path d="M4908 6113 c-53 -22 -47 -35 7 -16 25 8 45 19 45 24 0 12 -7 10 -52
-8z"/>
<path d="M4745 6050 c-23 -10 -32 -19 -22 -19 20 -1 87 25 87 33 0 10 -24 5
-65 -14z"/>
<path d="M4170 6023 c0 -11 69 -57 76 -50 3 3 -10 17 -29 31 -35 27 -47 32
-47 19z"/>
<path d="M4620 6003 c-8 -3 -26 -10 -39 -15 -13 -5 -21 -11 -18 -14 7 -8 87
17 87 28 0 9 -8 9 -30 1z"/>
<path d="M4306 5948 c-36 -51 -8 -118 48 -118 37 0 66 25 66 58 0 15 10 24 35
33 19 7 35 17 35 22 0 7 -19 4 -56 -10 -5 -2 -19 5 -29 17 -25 28 -79 27 -99
-2z"/>
<path d="M1110 5905 c0 -8 82 -47 87 -41 7 6 -58 46 -74 46 -7 0 -13 -2 -13
-5z"/>
<path d="M1260 5826 c0 -5 65 -46 74 -46 16 0 3 17 -25 33 -29 16 -49 22 -49
13z"/>
<path d="M1400 5745 c0 -5 75 -45 85 -45 17 0 0 19 -30 33 -36 17 -55 21 -55
12z"/>
<path d="M1550 5665 c0 -8 82 -47 87 -41 7 6 -58 46 -74 46 -7 0 -13 -2 -13
-5z"/>
<path d="M1596 5469 c-21 -16 -26 -29 -26 -64 0 -36 5 -48 25 -61 39 -25 94
-6 95 34 0 17 -27 15 -34 -3 -9 -24 -45 -18 -58 10 -9 19 -8 29 6 50 19 29 29
31 50 10 20 -20 38 -19 34 2 -2 9 -17 22 -35 29 -28 12 -34 11 -57 -7z"/>
<path d="M690 4760 c-39 -39 -14 -130 35 -130 8 0 22 -17 31 -37 9 -21 18 -33
21 -26 2 7 -1 22 -7 34 -7 11 -8 25 -3 29 4 4 215 -179 468 -407 437 -393 460
-416 470 -458 12 -55 35 -78 75 -78 37 0 48 9 64 58 l13 37 764 358 c526 247
767 356 775 349 7 -5 25 -14 41 -18 24 -7 32 -4 52 19 20 25 27 27 55 19 39
-11 46 -11 46 0 0 5 -15 12 -32 17 l-33 8 30 3 c31 3 2251 143 2273 143 7 0
11 -4 8 -9 -3 -5 -16 -6 -29 -3 -20 5 -21 4 -5 -11 13 -14 22 -15 47 -6 24 9
35 7 53 -5 12 -9 33 -16 46 -16 31 0 72 43 72 75 0 32 -41 75 -73 75 -29 0
-67 -34 -67 -60 0 -11 -3 -20 -7 -20 -5 0 -534 -34 -1178 -74 -837 -53 -1171
-71 -1174 -63 -2 6 -14 21 -27 34 -45 45 -117 17 -117 -46 0 -34 -54 -76 -85
-67 -18 6 -92 -18 -92 -30 0 -3 12 -3 28 0 18 4 22 3 12 -3 -56 -34 -1329
-624 -1345 -623 -10 1 -25 -4 -32 -10 -10 -8 -24 -6 -53 7 -37 17 -41 17 -65
1 l-25 -17 -463 417 c-254 229 -461 421 -460 428 0 6 4 25 8 43 14 63 -69 109
-115 63z"/>
<path d="M5758 4653 c7 -3 16 -2 19 1 4 3 -2 6 -13 5 -11 0 -14 -3 -6 -6z"/>
<path d="M5708 4643 c7 -3 16 -2 19 1 4 3 -2 6 -13 5 -11 0 -14 -3 -6 -6z"/>
<path d="M5668 4633 c7 -3 16 -2 19 1 4 3 -2 6 -13 5 -11 0 -14 -3 -6 -6z"/>
<path d="M5578 4613 c7 -3 16 -2 19 1 4 3 -2 6 -13 5 -11 0 -14 -3 -6 -6z"/>
<path d="M5678 4607 c-33 -13 -38 -31 -5 -21 43 13 67 24 67 29 0 8 -32 4 -62
-8z"/>
<path d="M5488 4593 c7 -3 16 -2 19 1 4 3 -2 6 -13 5 -11 0 -14 -3 -6 -6z"/>
<path d="M5448 4583 c7 -3 16 -2 19 1 4 3 -2 6 -13 5 -11 0 -14 -3 -6 -6z"/>
<path d="M5358 4563 c7 -3 16 -2 19 1 4 3 -2 6 -13 5 -11 0 -14 -3 -6 -6z"/>
<path d="M5531 4549 c-24 -11 -42 -22 -39 -24 8 -9 98 27 92 36 -3 5 -6 9 -7
8 -1 0 -22 -9 -46 -20z"/>
<path d="M5268 4543 c7 -3 16 -2 19 1 4 3 -2 6 -13 5 -11 0 -14 -3 -6 -6z"/>
<path d="M5228 4533 c7 -3 16 -2 19 1 4 3 -2 6 -13 5 -11 0 -14 -3 -6 -6z"/>
<path d="M3812 4507 c-28 -29 -28 -67 -1 -101 22 -28 48 -33 80 -16 15 9 26 6
48 -10 31 -22 41 -25 41 -12 0 4 -13 16 -29 25 -26 15 -30 23 -28 58 1 32 -4
45 -22 60 -31 25 -63 24 -89 -4z"/>
<path d="M5178 4523 c7 -3 16 -2 19 1 4 3 -2 6 -13 5 -11 0 -14 -3 -6 -6z"/>
<path d="M5138 4513 c7 -3 16 -2 19 1 4 3 -2 6 -13 5 -11 0 -14 -3 -6 -6z"/>
<path d="M5378 4493 c-21 -9 -38 -20 -38 -25 0 -6 8 -7 18 -3 9 4 29 12 45 17
15 5 27 14 27 19 0 12 -7 10 -52 -8z"/>
<path d="M3660 4492 c0 -11 89 -31 95 -22 3 4 -15 13 -40 19 -53 13 -55 13
-55 3z"/>
<path d="M5048 4493 c7 -3 16 -2 19 1 4 3 -2 6 -13 5 -11 0 -14 -3 -6 -6z"/>
<path d="M800 4485 c0 -2 8 -20 17 -40 22 -46 38 -45 18 1 -8 20 -15 38 -15
40 0 2 -4 4 -10 4 -5 0 -10 -2 -10 -5z"/>
<path d="M4958 4473 c7 -3 16 -2 19 1 4 3 -2 6 -13 5 -11 0 -14 -3 -6 -6z"/>
<path d="M4918 4463 c7 -3 16 -2 19 1 4 3 -2 6 -13 5 -11 0 -14 -3 -6 -6z"/>
<path d="M4828 4443 c7 -3 16 -2 19 1 4 3 -2 6 -13 5 -11 0 -14 -3 -6 -6z"/>
<path d="M5223 4433 c-24 -8 -43 -19 -43 -25 0 -6 8 -7 18 -3 9 4 29 12 45 17
15 5 27 14 27 19 0 5 -1 9 -2 8 -2 0 -22 -7 -45 -16z"/>
<path d="M3080 4423 c-25 -9 -39 -18 -33 -20 17 -6 83 16 83 28 0 5 -1 9 -2 8
-2 0 -23 -8 -48 -16z"/>
<path d="M3471 4424 c0 -11 3 -14 6 -6 3 7 2 16 -1 19 -3 4 -6 -2 -5 -13z"/>
<path d="M4738 4423 c7 -3 16 -2 19 1 4 3 -2 6 -13 5 -11 0 -14 -3 -6 -6z"/>
<path d="M4698 4413 c7 -3 16 -2 19 1 4 3 -2 6 -13 5 -11 0 -14 -3 -6 -6z"/>
<path d="M142 4400 c-43 -10 -70 -35 -82 -78 -11 -40 -6 -52 18 -52 10 0 24
16 34 40 37 89 163 48 129 -43 -6 -16 -35 -40 -78 -65 -89 -52 -106 -72 -107
-125 l-1 -42 120 0 120 0 0 25 c0 25 -1 25 -98 30 l-99 5 24 22 c12 11 51 38
85 58 88 51 113 107 78 175 -23 45 -78 64 -143 50z"/>
<path d="M4608 4393 c7 -3 16 -2 19 1 4 3 -2 6 -13 5 -11 0 -14 -3 -6 -6z"/>
<path d="M3481 4374 c0 -11 3 -14 6 -6 3 7 2 16 -1 19 -3 4 -6 -2 -5 -13z"/>
<path d="M5071 4376 c-19 -7 -37 -18 -39 -24 -2 -8 12 -6 42 5 25 10 46 21 46
25 0 10 -7 9 -49 -6z"/>
<path d="M2913 4368 c-18 -6 -33 -15 -33 -20 0 -10 26 -4 75 17 37 17 6 18
-42 3z"/>
<path d="M4518 4373 c7 -3 16 -2 19 1 4 3 -2 6 -13 5 -11 0 -14 -3 -6 -6z"/>
<path d="M4478 4363 c7 -3 16 -2 19 1 4 3 -2 6 -13 5 -11 0 -14 -3 -6 -6z"/>
<path d="M4428 4353 c7 -3 16 -2 19 1 4 3 -2 6 -13 5 -11 0 -14 -3 -6 -6z"/>
<path d="M4388 4343 c7 -3 16 -2 19 1 4 3 -2 6 -13 5 -11 0 -14 -3 -6 -6z"/>
<path d="M872 4315 c9 -20 8 -28 -5 -43 -56 -61 31 -155 102 -110 14 9 23 8
42 -5 25 -18 39 -21 39 -9 0 4 -13 14 -29 23 -23 14 -28 22 -24 43 8 40 -20
75 -66 82 -27 4 -41 12 -44 25 -3 11 -10 19 -16 19 -7 0 -7 -8 1 -25z"/>
<path d="M2763 4317 c-17 -7 -35 -15 -39 -19 -12 -13 25 -9 61 6 59 25 40 35
-22 13z"/>
<path d="M4037 4324 c-6 -6 35 -49 55 -56 8 -3 22 0 33 8 18 13 18 14 -4 14
-13 0 -35 9 -51 20 -15 11 -30 17 -33 14z"/>
<path d="M4298 4323 c7 -3 16 -2 19 1 4 3 -2 6 -13 5 -11 0 -14 -3 -6 -6z"/>
<path d="M4905 4311 c-22 -11 -34 -20 -26 -20 21 -1 81 22 81 31 0 12 -11 10
-55 -11z"/>
<path d="M4208 4303 c7 -3 16 -2 19 1 4 3 -2 6 -13 5 -11 0 -14 -3 -6 -6z"/>
<path d="M2475 4280 c-11 -12 -19 -36 -19 -55 0 -28 -6 -37 -38 -55 -21 -12
-38 -25 -38 -31 0 -14 7 -11 51 18 30 20 43 23 51 15 22 -22 75 -14 97 14 12
15 21 33 21 41 0 8 14 19 30 24 17 6 30 15 30 19 0 5 -14 4 -31 -2 -26 -9 -33
-7 -53 11 -29 27 -77 27 -101 1z"/>
<path d="M3501 4284 c0 -11 3 -14 6 -6 3 7 2 16 -1 19 -3 4 -6 -2 -5 -13z"/>
<path d="M4168 4293 c7 -3 16 -2 19 1 4 3 -2 6 -13 5 -11 0 -14 -3 -6 -6z"/>
<path d="M4745 4251 c-23 -11 -32 -20 -22 -20 20 -1 87 25 87 33 0 11 -25 5
-65 -13z"/>
<path d="M3988 4253 c7 -3 16 -2 19 1 4 3 -2 6 -13 5 -11 0 -14 -3 -6 -6z"/>
<path d="M3511 4234 c0 -11 3 -14 6 -6 3 7 2 16 -1 19 -3 4 -6 -2 -5 -13z"/>
<path d="M3948 4243 c7 -3 16 -2 19 1 4 3 -2 6 -13 5 -11 0 -14 -3 -6 -6z"/>
<path d="M3898 4233 c7 -3 16 -2 19 1 4 3 -2 6 -13 5 -11 0 -14 -3 -6 -6z"/>
<path d="M3858 4223 c7 -3 16 -2 19 1 4 3 -2 6 -13 5 -11 0 -14 -3 -6 -6z"/>
<path d="M4170 4223 c0 -8 65 -53 75 -53 15 0 1 18 -30 38 -37 24 -45 26 -45
15z"/>
<path d="M3768 4203 c7 -3 16 -2 19 1 4 3 -2 6 -13 5 -11 0 -14 -3 -6 -6z"/>
<path d="M4591 4194 c-18 -8 -31 -17 -28 -21 7 -7 75 16 82 28 9 13 -14 10
-54 -7z"/>
<path d="M3521 4184 c0 -11 3 -14 6 -6 3 7 2 16 -1 19 -3 4 -6 -2 -5 -13z"/>
<path d="M3678 4183 c7 -3 16 -2 19 1 4 3 -2 6 -13 5 -11 0 -14 -3 -6 -6z"/>
<path d="M3638 4173 c7 -3 16 -2 19 1 4 3 -2 6 -13 5 -11 0 -14 -3 -6 -6z"/>
<path d="M4316 4159 c-52 -41 -23 -129 43 -129 32 0 61 30 61 63 0 9 6 20 13
22 57 20 71 28 55 32 -9 2 -27 -1 -39 -8 -18 -9 -24 -9 -33 3 -12 16 -49 38
-64 38 -5 0 -21 -9 -36 -21z"/>
<path d="M3538 4153 c6 -2 18 -2 25 0 6 3 1 5 -13 5 -14 0 -19 -2 -12 -5z"/>
<path d="M3458 4133 c7 -3 16 -2 19 1 4 3 -2 6 -13 5 -11 0 -14 -3 -6 -6z"/>
<path d="M3418 4123 c7 -3 16 -2 19 1 4 3 -2 6 -13 5 -11 0 -14 -3 -6 -6z"/>
<path d="M1110 4105 c0 -5 75 -45 85 -45 17 0 0 19 -30 33 -36 17 -55 21 -55
12z"/>
<path d="M3328 4103 c7 -3 16 -2 19 1 4 3 -2 6 -13 5 -11 0 -14 -3 -6 -6z"/>
<path d="M2273 4079 c-47 -30 -41 -44 7 -17 22 13 40 26 40 31 0 12 -13 8 -47
-14z"/>
<path d="M3238 4083 c7 -3 16 -2 19 1 4 3 -2 6 -13 5 -11 0 -14 -3 -6 -6z"/>
<path d="M3198 4073 c7 -3 16 -2 19 1 4 3 -2 6 -13 5 -11 0 -14 -3 -6 -6z"/>
<path d="M3148 4063 c7 -3 16 -2 19 1 4 3 -2 6 -13 5 -11 0 -14 -3 -6 -6z"/>
<path d="M3108 4053 c7 -3 16 -2 19 1 4 3 -2 6 -13 5 -11 0 -14 -3 -6 -6z"/>
<path d="M1260 4031 c0 -6 18 -20 40 -31 22 -11 40 -17 40 -12 0 5 -18 18 -40
31 -22 12 -40 18 -40 12z"/>
<path d="M3018 4033 c7 -3 16 -2 19 1 4 3 -2 6 -13 5 -11 0 -14 -3 -6 -6z"/>
<path d="M2928 4013 c7 -3 16 -2 19 1 4 3 -2 6 -13 5 -11 0 -14 -3 -6 -6z"/>
<path d="M2133 3989 c-18 -12 -33 -25 -33 -31 0 -10 56 20 72 40 16 18 -3 14
-39 -9z"/>
<path d="M2888 4003 c7 -3 16 -2 19 1 4 3 -2 6 -13 5 -11 0 -14 -3 -6 -6z"/>
<path d="M2798 3983 c7 -3 16 -2 19 1 4 3 -2 6 -13 5 -11 0 -14 -3 -6 -6z"/>
<path d="M2708 3963 c7 -3 16 -2 19 1 4 3 -2 6 -13 5 -11 0 -14 -3 -6 -6z"/>
<path d="M2668 3953 c7 -3 16 -2 19 1 4 3 -2 6 -13 5 -11 0 -14 -3 -6 -6z"/>
<path d="M1435 3925 c43 -26 55 -30 55 -17 0 9 -65 42 -83 42 -7 0 6 -11 28
-25z"/>
<path d="M2618 3943 c7 -3 16 -2 19 1 4 3 -2 6 -13 5 -11 0 -14 -3 -6 -6z"/>
<path d="M2578 3933 c7 -3 16 -2 19 1 4 3 -2 6 -13 5 -11 0 -14 -3 -6 -6z"/>
<path d="M1987 3897 c-21 -13 -35 -26 -32 -29 7 -7 71 28 81 43 9 15 -9 10
-49 -14z"/>
<path d="M2488 3913 c7 -3 16 -2 19 1 4 3 -2 6 -13 5 -11 0 -14 -3 -6 -6z"/>
<path d="M2398 3893 c7 -3 16 -2 19 1 4 3 -2 6 -13 5 -11 0 -14 -3 -6 -6z"/>
<path d="M2358 3883 c7 -3 16 -2 19 1 4 3 -2 6 -13 5 -11 0 -14 -3 -6 -6z"/>
<path d="M1550 3870 c0 -5 18 -19 40 -30 44 -22 54 -25 45 -10 -10 16 -85 52
-85 40z"/>
<path d="M2268 3863 c7 -3 16 -2 19 1 4 3 -2 6 -13 5 -11 0 -14 -3 -6 -6z"/>
<path d="M2178 3843 c7 -3 16 -2 19 1 4 3 -2 6 -13 5 -11 0 -14 -3 -6 -6z"/>
<path d="M2138 3833 c7 -3 16 -2 19 1 4 3 -2 6 -13 5 -11 0 -14 -3 -6 -6z"/>
<path d="M2048 3813 c7 -3 16 -2 19 1 4 3 -2 6 -13 5 -11 0 -14 -3 -6 -6z"/>
<path d="M1958 3793 c7 -3 16 -2 19 1 4 3 -2 6 -13 5 -11 0 -14 -3 -6 -6z"/>
<path d="M1918 3783 c7 -3 16 -2 19 1 4 3 -2 6 -13 5 -11 0 -14 -3 -6 -6z"/>
<path d="M1868 3773 c7 -3 16 -2 19 1 4 3 -2 6 -13 5 -11 0 -14 -3 -6 -6z"/>
<path d="M690 2960 c-39 -39 -14 -130 36 -130 8 0 22 -16 30 -36 18 -44 31
-38 15 7 -16 46 -6 48 37 7 20 -19 219 -198 442 -398 223 -200 415 -373 428
-384 12 -12 25 -40 29 -62 8 -51 29 -74 67 -74 42 0 55 10 70 55 l14 38 761
358 762 357 31 -15 c27 -14 34 -14 65 1 l35 17 385 -188 c212 -103 387 -192
388 -198 2 -5 6 -22 9 -36 13 -61 102 -63 120 -2 10 34 23 40 216 113 47 17
112 42 145 55 33 14 85 34 115 44 30 11 96 35 145 54 50 19 151 57 225 85 74
28 189 72 255 97 66 26 131 50 145 55 14 4 67 25 119 45 94 36 94 36 127 19
89 -48 160 76 72 125 -37 21 -79 5 -93 -34 -5 -17 -14 -33 -20 -37 -6 -5 -4
-8 5 -8 15 -1 -62 -35 -155 -70 -48 -17 -92 -34 -305 -115 -52 -20 -124 -47
-160 -60 -36 -13 -101 -38 -145 -55 -44 -17 -114 -44 -155 -59 -41 -15 -173
-64 -292 -109 -216 -82 -248 -91 -248 -72 0 5 -14 17 -31 26 -30 15 -32 15
-59 -11 -24 -23 -30 -25 -53 -14 -14 6 -24 17 -21 23 5 13 -65 61 -74 51 -4
-4 0 -10 8 -15 8 -5 24 -16 35 -24 19 -16 19 -16 -5 -7 -56 21 -673 332 -647
326 15 -3 27 -1 27 4 0 6 -17 13 -37 18 l-38 7 30 7 c27 6 28 7 5 8 -17 1 -31
11 -42 31 -23 41 -63 56 -95 35 -24 -16 -47 -60 -38 -74 10 -17 -44 -53 -82
-56 -21 -1 -50 -5 -65 -10 -37 -10 -37 -29 -1 -20 16 4 26 5 23 2 -17 -16
-1339 -630 -1355 -629 -10 1 -25 -4 -33 -10 -10 -9 -22 -7 -49 7 -33 18 -37
18 -64 2 l-30 -17 -462 417 c-254 229 -461 421 -460 427 0 6 4 25 8 43 14 63
-69 109 -115 63z"/>
<path d="M5723 2883 c15 -2 39 -2 55 0 15 2 2 4 -28 4 -30 0 -43 -2 -27 -4z"/>
<path d="M5573 2873 c15 -2 37 -2 50 0 12 2 0 4 -28 4 -27 0 -38 -2 -22 -4z"/>
<path d="M5413 2863 c15 -2 37 -2 50 0 12 2 0 4 -28 4 -27 0 -38 -2 -22 -4z"/>
<path d="M5253 2853 c15 -2 37 -2 50 0 12 2 0 4 -28 4 -27 0 -38 -2 -22 -4z"/>
<path d="M5093 2843 c15 -2 37 -2 50 0 12 2 0 4 -28 4 -27 0 -38 -2 -22 -4z"/>
<path d="M4933 2833 c15 -2 37 -2 50 0 12 2 0 4 -28 4 -27 0 -38 -2 -22 -4z"/>
<path d="M4773 2823 c15 -2 37 -2 50 0 12 2 0 4 -28 4 -27 0 -38 -2 -22 -4z"/>
<path d="M4613 2813 c15 -2 37 -2 50 0 12 2 0 4 -28 4 -27 0 -38 -2 -22 -4z"/>
<path d="M4453 2803 c15 -2 39 -2 55 0 15 2 2 4 -28 4 -30 0 -43 -2 -27 -4z"/>
<path d="M4303 2793 c15 -2 37 -2 50 0 12 2 0 4 -28 4 -27 0 -38 -2 -22 -4z"/>
<path d="M4143 2783 c15 -2 37 -2 50 0 12 2 0 4 -28 4 -27 0 -38 -2 -22 -4z"/>
<path d="M3983 2773 c15 -2 37 -2 50 0 12 2 0 4 -28 4 -27 0 -38 -2 -22 -4z"/>
<path d="M3823 2763 c15 -2 37 -2 50 0 12 2 0 4 -28 4 -27 0 -38 -2 -22 -4z"/>
<path d="M3663 2753 c15 -2 37 -2 50 0 12 2 0 4 -28 4 -27 0 -38 -2 -22 -4z"/>
<path d="M4323 2715 c0 -22 2 -30 4 -17 2 12 2 30 0 40 -3 9 -5 -1 -4 -23z"/>
<path d="M3812 2710 c-30 -28 -29 -74 3 -105 26 -27 46 -31 76 -15 15 9 26 6
50 -11 17 -11 33 -19 36 -15 6 6 -36 45 -49 46 -4 0 -6 18 -5 39 2 72 -62 107
-111 61z"/>
<path d="M800 2692 c0 -18 33 -82 42 -82 5 0 1 17 -7 38 -18 41 -35 63 -35 44z"/>
<path d="M3660 2692 c0 -10 48 -22 84 -22 17 1 18 2 6 9 -24 14 -90 23 -90 13z"/>
<path d="M3075 2621 c-22 -11 -33 -20 -24 -20 24 -1 79 20 79 30 0 13 -10 11
-55 -10z"/>
<path d="M4333 2585 c0 -22 2 -30 4 -17 2 12 2 30 0 40 -3 9 -5 -1 -4 -23z"/>
<path d="M85 2588 c-15 -14 -28 -38 -32 -60 -5 -36 -4 -38 21 -38 18 0 26 5
26 18 0 10 10 28 23 40 43 40 109 21 110 -32 0 -35 -21 -56 -59 -60 -21 -2
-29 -9 -29 -22 0 -14 10 -20 39 -25 78 -13 90 -89 18 -118 -40 -17 -99 7 -108
43 -4 19 -13 26 -30 26 -28 0 -31 -18 -9 -60 23 -45 53 -60 116 -60 64 0 98
20 119 69 16 40 5 96 -22 115 -19 14 -19 16 -4 31 10 11 16 33 16 65 0 41 -4
52 -26 69 -39 31 -133 30 -169 -1z"/>
<path d="M2913 2568 c-18 -6 -33 -15 -33 -20 0 -10 26 -4 75 17 37 17 6 18
-42 3z"/>
<path d="M872 2515 c9 -20 8 -28 -5 -43 -56 -62 31 -155 102 -110 15 9 24 8
45 -5 28 -19 36 -21 36 -9 0 4 -13 14 -29 23 -23 14 -27 21 -23 47 5 40 -34
82 -76 82 -21 0 -31 6 -35 20 -3 11 -10 20 -16 20 -7 0 -7 -8 1 -25z"/>
<path d="M2780 2523 c-8 -3 -26 -10 -39 -15 -39 -14 -16 -21 26 -8 41 13 66
31 43 29 -8 0 -22 -3 -30 -6z"/>
<path d="M4036 2523 c-8 -8 62 -55 76 -51 6 2 -8 16 -30 30 -22 15 -43 24 -46
21z"/>
<path d="M2494 2498 c-67 -32 -43 -138 31 -138 34 0 58 20 70 58 4 14 19 28
36 34 16 5 29 14 29 19 0 11 -3 11 -37 -2 -21 -8 -30 -7 -38 4 -11 15 -49 37
-62 36 -4 0 -18 -5 -29 -11z"/>
<path d="M4343 2450 c0 -25 2 -35 4 -22 2 12 2 32 0 45 -2 12 -4 2 -4 -23z"/>
<path d="M2413 2369 c-47 -30 -41 -45 7 -18 22 13 40 26 40 31 0 13 -12 9 -47
-13z"/>
<path d="M1110 2312 c0 -8 71 -52 84 -52 19 0 0 19 -39 38 -25 12 -45 18 -45
14z"/>
<path d="M2273 2279 c-18 -12 -33 -25 -33 -31 0 -10 56 20 72 40 16 18 -3 14
-39 -9z"/>
<path d="M1260 2230 c0 -5 18 -19 40 -30 22 -11 40 -16 40 -10 0 5 -18 19 -40
30 -22 11 -40 16 -40 10z"/>
<path d="M2133 2190 c-18 -11 -33 -24 -33 -30 0 -10 66 26 76 41 9 15 -9 10
-43 -11z"/>
<path d="M1406 2153 c-3 -4 12 -17 35 -30 45 -25 49 -27 49 -15 0 11 -77 52
-84 45z"/>
<path d="M1980 2095 c-19 -14 -28 -25 -21 -25 14 0 81 38 81 46 0 11 -28 1
-60 -21z"/>
<path d="M1550 2072 c0 -8 71 -52 84 -52 19 0 0 19 -39 38 -25 12 -45 18 -45
14z"/>
<path d="M692 1164 c-16 -11 -22 -25 -22 -55 0 -52 29 -82 76 -77 32 3 58 -19
499 -416 454 -409 465 -420 465 -456 0 -44 24 -70 66 -70 41 0 64 19 73 60 l7
33 763 358 c755 355 763 358 792 343 27 -13 33 -13 65 2 l35 17 387 -190 c338
-165 387 -193 390 -214 2 -13 13 -34 25 -46 37 -41 90 -24 105 32 8 29 23 36
737 306 708 268 729 275 747 257 10 -10 29 -18 43 -18 33 0 75 42 75 75 0 33
-42 75 -75 75 -33 0 -65 -33 -65 -68 l0 -29 -727 -275 -728 -275 -22 23 c-27
29 -62 31 -91 4 l-21 -20 -388 189 -388 190 0 31 c0 22 -8 39 -28 56 -37 31
-52 30 -89 -6 -23 -23 -29 -36 -24 -55 6 -22 0 -28 -51 -53 -124 -63 -1472
-692 -1481 -692 -5 0 -15 7 -22 15 -14 17 -53 20 -80 5 -16 -9 -84 48 -482
407 -270 244 -462 424 -461 433 1 8 5 26 8 40 5 18 0 34 -15 53 -25 31 -63 36
-98 11z"/>
<path d="M3811 904 c-24 -30 -26 -46 -10 -77 16 -29 28 -37 60 -37 35 0 59 29
59 73 0 64 -70 90 -109 41z"/>
<path d="M225 812 c-25 -4 -185 -221 -185 -251 0 -18 7 -20 83 -23 l82 -3 3
-47 c3 -39 7 -48 22 -48 15 0 19 9 22 48 3 40 6 47 26 50 32 5 30 42 -3 42
l-24 0 -3 118 c-3 111 -4 117 -23 114z m-25 -162 l0 -70 -55 0 -55 0 52 70
c29 38 54 70 56 70 1 0 2 -31 2 -70z"/>
<path d="M2510 703 c-74 -27 -60 -143 17 -143 47 0 83 75 55 116 -7 10 -47 35
-54 33 -2 0 -10 -3 -18 -6z"/>
<path d="M900 693 c-53 -20 -65 -74 -25 -117 37 -40 93 -30 114 21 25 60 -29
118 -89 96z"/>
</g>
</svg>
